{
  "accessors": [
    {
      "bufferView": 2,
      "componentType": 5126,
      "count": 1092,
      "max": [
        0.43585777282714844,
        -0.8089148998260498,
        3.824706554412842
      ],
      "min": [
        -0.43585777282714844,
        -1.1866227388381958,
        3.432054042816162
      ],
      "type": "VEC3"
    },
    {
      "bufferView": 2,
      "byteOffset": 13104,
      "componentType": 5126,
      "count": 1092,
      "max": [
        1.0,
        1.0,
        1.0
      ],
      "min": [
        -1.0,
        -1.0,
        -1.0
      ],
      "type": "VEC3"
    },
    {
      "bufferView": 1,
      "componentType": 5126,
      "count": 1092,
      "max": [
        0.9817854762077332,
        0.8995958566665649
      ],
      "min": [
        0.01821458339691162,
        0.01821458339691162
      ],
      "type": "VEC2"
    },
    {
      "bufferView": 0,
      "componentType": 5125,
      "count": 6144,
      "type": "SCALAR"
    },
    {
      "bufferView": 2,
      "byteOffset": 26208,
      "componentType": 5126,
      "count": 9663,
      "max": [
        0.783606767654419,
        1.903695821762085,
        4.183970928192139
      ],
      "min": [
        -0.7836238145828247,
        -1.992138385772705,
        0.08620403707027435
      ],
      "type": "VEC3"
    },
    {
      "bufferView": 2,
      "byteOffset": 142164,
      "componentType": 5126,
      "count": 9663,
      "max": [
        0.9997453689575195,
        0.9999159574508667,
        0.9999921321868896
      ],
      "min": [
        -0.99974524974823,
        -0.9999996423721313,
        -0.9999998807907104
      ],
      "type": "VEC3"
    },
    {
      "bufferView": 3,
      "componentType": 5126,
      "count": 9663,
      "max": [
        0.999984085559845,
        0.9990904927253723,
        0.9999904036521912,
        1.0
      ],
      "min": [
        -0.9998623132705688,
        -0.9988890290260315,
        -0.999731183052063,
        1.0
      ],
      "type": "VEC4"
    },
    {
      "bufferView": 1,
      "byteOffset": 8736,
      "componentType": 5126,
      "count": 9663,
      "max": [
        0.9780304431915283,
        0.9538940787315369
      ],
      "min": [
        0.021909892559051514,
        0.021909892559051514
      ],
      "type": "VEC2"
    },
    {
      "bufferView": 1,
      "byteOffset": 86040,
      "componentType": 5126,
      "count": 9663,
      "max": [
        0.9780304431915283,
        0.9538940787315369
      ],
      "min": [
        0.021909892559051514,
        0.021909892559051514
      ],
      "type": "VEC2"
    },
    {
      "bufferView": 1,
      "byteOffset": 163344,
      "componentType": 5126,
      "count": 9663,
      "max": [
        0.9780304431915283,
        0.9538940787315369
      ],
      "min": [
        0.021909892559051514,
        0.021909892559051514
      ],
      "type": "VEC2"
    },
    {
      "bufferView": 0,
      "byteOffset": 24576,
      "componentType": 5125,
      "count": 40332,
      "type": "SCALAR"
    },
    {
      "bufferView": 2,
      "byteOffset": 258120,
      "componentType": 5126,
      "count": 1118,
      "max": [
        0.4371641278266907,
        -0.8076103925704956,
        3.826012134552002
      ],
      "min": [
        -0.4371641278266907,
        -1.2028746604919434,
        3.4307477474212646
      ],
      "type": "VEC3"
    },
    {
      "bufferView": 2,
      "byteOffset": 271536,
      "componentType": 5126,
      "count": 1118,
      "max": [
        1.0,
        1.0,
        1.0
      ],
      "min": [
        -1.0,
        -1.0,
        -1.0
      ],
      "type": "VEC3"
    },
    {
      "bufferView": 1,
      "byteOffset": 240648,
      "componentType": 5126,
      "count": 1118,
      "max": [
        1.000000238418579,
        1.0
      ],
      "min": [
        0.0,
        0.0
      ],
      "type": "VEC2"
    },
    {
      "bufferView": 0,
      "byteOffset": 185904,
      "componentType": 5125,
      "count": 5760,
      "type": "SCALAR"
    }
  ],
  "asset": {
    "extras": {
      "author": "leocalca (https://sketchfab.com/leocalca)",
      "license": "CC-BY-4.0 (http://creativecommons.org/licenses/by/4.0/)",
      "source": "https://sketchfab.com/3d-models/greeno-dino-1fec2f6b869a42a592d29466402d1e93",
      "title": "Greeno Dino"
    },
    "generator": "Sketchfab-12.66.0",
    "version": "2.0"
  },
  "bufferViews": [
    {
      "buffer": 0,
      "byteLength": 208944,
      "name": "floatBufferViews",
      "target": 34963
    },
    {
      "buffer": 0,
      "byteLength": 249592,
      "byteOffset": 208944,
      "byteStride": 8,
      "name": "floatBufferViews",
      "target": 34962
    },
    {
      "buffer": 0,
      "byteLength": 284952,
      "byteOffset": 458536,
      "byteStride": 12,
      "name": "floatBufferViews",
      "target": 34962
    },
    {
      "buffer": 0,
      "byteLength": 154608,
      "byteOffset": 743488,
      "byteStride": 16,
      "name": "floatBufferViews",
      "target": 34962
    }
  ],
  "buffers": [
    {
      "byteLength": 898096,
      "uri": "scene.bin"
    }
  ],
  "extensionsUsed": [
    "KHR_materials_transmission"
  ],
  "images": [
    {
      "uri": "textures/Eyes_baseColor.png"
    },
    {
      "uri": "textures/Material_baseColor.png"
    },
    {
      "uri": "textures/Material_metallicRoughness.png"
    },
    {
      "uri": "textures/Material_normal.png"
    }
  ],
  "materials": [
    {
      "doubleSided": true,
      "name": "Eyes",
      "pbrMetallicRoughness": {
        "baseColorTexture": {
          "index": 0
        },
        "metallicFactor": 0.0,
        "roughnessFactor": 0.25
      }
    },
    {
      "doubleSided": true,
      "name": "Material",
      "normalTexture": {
        "index": 3
      },
      "pbrMetallicRoughness": {
        "baseColorTexture": {
          "index": 1
        },
        "metallicFactor": 0.0,
        "metallicRoughnessTexture": {
          "index": 2
        }
      }
    },
    {
      "alphaMode": "BLEND",
      "doubleSided": true,
      "extensions": {
        "KHR_materials_transmission": {
          "transmissionFactor": 1.0
        }
      },
      "name": "Dino_eyes_glass",
      "pbrMetallicRoughness": {
        "baseColorFactor": [
          0.8,
          0.8,
          0.8,
          0.25
        ],
        "metallicFactor": 0.0,
        "roughnessFactor": 0.0
      }
    }
  ],
  "meshes": [
    {
      "name": "Eyes_Eyes_0",
      "primitives": [
        {
          "attributes": {
            "NORMAL": 1,
            "POSITION": 0,
            "TEXCOORD_0": 2
          },
          "indices": 3,
          "material": 0,
          "mode": 4
        }
      ]
    },
    {
      "name": "Retopology_Material_0",
      "primitives": [
        {
          "attributes": {
            "NORMAL": 5,
            "POSITION": 4,
            "TANGENT": 6,
            "TEXCOORD_0": 7,
            "TEXCOORD_1": 8,
            "TEXCOORD_2": 9
          },
          "indices": 10,
          "material": 1,
          "mode": 4
        }
      ]
    },
    {
      "name": "Eyes glass_Dino eyes glass_0",
      "primitives": [
        {
          "attributes": {
            "NORMAL": 12,
            "POSITION": 11,
            "TEXCOORD_0": 13
          },
          "indices": 14,
          "material": 2,
          "mode": 4
        }
      ]
    }
  ],
  "nodes": [
    {
      "children": [
        1
      ],
      "matrix": [
        1.0,
        4.959436139689051e-17,
        4.9915267769891707e-17,
        0.0,
        4.966542944639863e-17,
        0.00502488808706425,
        -0.9999873638153076,
        0.0,
        -4.984455375368576e-17,
        0.9999873638153076,
        0.00502488808706425,
        0.0,
        1.0861971044828778e-14,
        0.024922246113419772,
        -1.0728017091751099,
        1.0
      ],
      "name": "Sketchfab_model"
    },
    {
      "children": [
        2
      ],
      "matrix": [
        1.0,
        0.0,
        0.0,
        0.0,
        0.0,
        0.0,
        1.0,
        0.0,
        0.0,
        -1.0,
        0.0,
        0.0,
        0.0,
        0.0,
        0.0,
        1.0
      ],
      "name": "dino_sketch.fbx"
    },
    {
      "children": [
        3,
        5,
        7
      ],
      "name": "RootNode"
    },
    {
      "children": [
        4
      ],
      "matrix": [
        101.84812927246094,
        0.0,
        0.0,
        0.0,
        0.0,
        -1.659316641585641e-05,
        -101.84812927245959,
        0.0,
        0.0,
        101.84812927245959,
        -1.659316641585641e-05,
        0.0,
        0.0,
        0.0,
        0.0,
        1.0
      ],
      "name": "Eyes"
    },
    {
      "mesh": 0,
      "name": "Eyes_Eyes_0"
    },
    {
      "children": [
        6
      ],
      "matrix": [
        100.0,
        0.0,
        0.0,
        0.0,
        0.0,
        -1.629206793918314e-05,
        -99.99999999999868,
        0.0,
        0.0,
        99.99999999999868,
        -1.629206793918314e-05,
        0.0,
        0.0,
        0.0,
        0.0,
        1.0
      ],
      "name": "Retopology"
    },
    {
      "mesh": 1,
      "name": "Retopology_Material_0"
    },
    {
      "children": [
        8
      ],
      "matrix": [
        101.84812927246094,
        0.0,
        0.0,
        0.0,
        0.0,
        -1.659316641585641e-05,
        -101.84812927245959,
        0.0,
        0.0,
        101.84812927245959,
        -1.659316641585641e-05,
        0.0,
        0.0,
        0.0,
        0.0,
        1.0
      ],
      "name": "Eyes glass"
    },
    {
      "mesh": 2,
      "name": "Eyes glass_Dino eyes glass_0"
    }
  ],
  "samplers": [
    {
      "magFilter": 9729,
      "minFilter": 9987,
      "wrapS": 10497,
      "wrapT": 10497
    }
  ],
  "scene": 0,
  "scenes": [
    {
      "name": "Sketchfab_Scene",
      "nodes": [
        0
      ]
    }
  ],
  "textures": [
    {
      "sampler": 0,
      "source": 0
    },
    {
      "sampler": 0,
      "source": 1
    },
    {
      "sampler": 0,
      "source": 2
    },
    {
      "sampler": 0,
      "source": 3
    }
  ]
}
